<svg aria-hidden="true" style="position: absolute; width: 0; height: 0; overflow: hidden;" version="1.1" xmlns="http://www.w3.org/2000/svg" xmlns:xlink="http://www.w3.org/1999/xlink">
<defs>

<symbol id="icon-facebook" viewBox="0 0 32 32">
<path d="M21.328 5.312h2.923v-5.088c-1.232-0.143-2.66-0.224-4.108-0.224-0.052 0-0.104 0-0.156 0l0.008-0c-4.213 0-7.099 2.65-7.099 7.52v4.48h-4.646v5.688h4.646v14.312h5.699v-14.31h4.459l0.707-5.688h-5.168v-3.922c0-1.643 0.443-2.768 2.734-2.768z"></path>
</symbol>
<symbol id="icon-instagram" viewBox="0 0 32 32">
<path d="M31.968 9.408c-0.074-1.701-0.349-2.869-0.742-3.882-0.424-1.111-1.054-2.059-1.85-2.837l-0.001-0.001c-0.78-0.792-1.724-1.419-2.778-1.827l-0.054-0.018c-1.019-0.394-2.181-0.667-3.882-0.742-1.712-0.082-2.256-0.101-6.602-0.101-4.344 0-4.888 0.019-6.595 0.094-1.699 0.074-2.869 0.349-3.88 0.742-1.112 0.424-2.060 1.054-2.839 1.85l-0.001 0.001c-0.791 0.78-1.418 1.724-1.825 2.778l-0.018 0.054c-0.395 1.019-0.669 2.181-0.744 3.882-0.082 1.712-0.101 2.256-0.101 6.602 0 4.344 0.019 4.888 0.094 6.595 0.075 1.701 0.35 2.869 0.744 3.882 0.426 1.11 1.055 2.057 1.849 2.837l0.001 0.001c0.8 0.813 1.77 1.443 2.832 1.843 1.019 0.395 2.182 0.67 3.882 0.744 1.707 0.075 2.251 0.094 6.595 0.094 4.346 0 4.89-0.019 6.595-0.094 1.701-0.074 2.869-0.349 3.882-0.742 2.157-0.85 3.833-2.526 4.664-4.628l0.019-0.055c0.394-1.019 0.669-2.182 0.744-3.882 0.075-1.707 0.093-2.251 0.093-6.595s-0.006-4.888-0.080-6.595zM29.088 22.474c-0.070 1.563-0.333 2.406-0.55 2.97-0.552 1.399-1.64 2.486-3.004 3.024l-0.036 0.012c-0.56 0.219-1.411 0.482-2.968 0.55-1.688 0.075-2.194 0.094-6.464 0.094-4.269 0-4.782-0.019-6.464-0.094-1.563-0.069-2.406-0.331-2.97-0.55-0.721-0.269-1.334-0.676-1.836-1.192l-0.001-0.001c-0.517-0.503-0.924-1.117-1.184-1.803l-0.011-0.034c-0.218-0.563-0.48-1.413-0.549-2.97-0.075-1.688-0.094-2.195-0.094-6.464 0-4.27 0.019-4.784 0.094-6.464 0.069-1.563 0.331-2.406 0.549-2.97 0.269-0.722 0.678-1.337 1.198-1.837l0.002-0.002c0.504-0.517 1.119-0.923 1.806-1.182l0.034-0.011c0.56-0.219 1.411-0.48 2.968-0.55 1.688-0.074 2.195-0.093 6.464-0.093 4.275 0 4.782 0.019 6.464 0.093 1.563 0.069 2.406 0.331 2.97 0.55 0.693 0.256 1.325 0.662 1.837 1.194 0.531 0.52 0.938 1.144 1.195 1.84 0.218 0.56 0.48 1.411 0.549 2.968 0.075 1.688 0.094 2.194 0.094 6.464 0 4.269-0.019 4.768-0.094 6.458z"></path>
<path d="M16.059 7.782c-4.539 0.002-8.218 3.682-8.219 8.221v0c0.091 4.471 3.737 8.060 8.221 8.060s8.13-3.589 8.221-8.052l0-0.009c-0.001-4.54-3.681-8.22-8.221-8.221h-0zM16.059 21.334c-2.945-0-5.332-2.388-5.332-5.333s2.388-5.333 5.333-5.333c0 0 0.001 0 0.001 0h-0c2.946 0 5.334 2.388 5.334 5.334s-2.388 5.334-5.334 5.334v0zM26.525 7.458c0 1.060-0.86 1.92-1.92 1.92s-1.92-0.86-1.92-1.92v0c0-1.060 0.86-1.92 1.92-1.92s1.92 0.86 1.92 1.92v0z"></path>
</symbol>
<symbol id="icon-linkedin" viewBox="0 0 32 32">
<path d="M31.992 32h0.008v-11.738c0-5.741-1.237-10.163-7.947-10.163-3.227 0-5.392 1.77-6.277 3.45h-0.093v-2.914h-6.365v21.363h6.627v-10.578c0-2.786 0.528-5.48 3.978-5.48 3.398 0 3.448 3.179 3.448 5.658v10.402h6.621zM0.528 10.635h6.635v21.365h-6.635v-21.365zM3.843 0c-2.123 0-3.843 1.721-3.843 3.843v0c0 2.12 1.722 3.878 3.843 3.878 2.12 0 3.842-1.757 3.842-3.878s-1.72-3.841-3.841-3.843h-0z"></path>
</symbol>
<symbol id="icon-tviter" viewBox="0 0 36 32">
<path d="M35.556 4.976c-1.222 0.548-2.64 0.952-4.125 1.142l-0.076 0.008c1.511-0.907 2.646-2.309 3.193-3.977l0.015-0.051c-1.331 0.803-2.879 1.415-4.529 1.748l-0.093 0.016c-1.333-1.421-3.223-2.306-5.319-2.306-4.025 0-7.287 3.263-7.287 7.287 0 0.001 0 0.003 0 0.004v-0c0 0.578 0.048 1.134 0.169 1.662-6.060-0.295-11.422-3.2-15.024-7.623-0.627 1.055-0.999 2.324-1.003 3.681v0.001c0 2.524 1.301 4.763 3.237 6.059-1.212-0.033-2.341-0.361-3.327-0.915l0.036 0.019v0.080c0.005 3.515 2.486 6.449 5.792 7.152l0.048 0.009c-0.556 0.153-1.195 0.24-1.854 0.24-0.020 0-0.040-0-0.061-0l0.003 0c-0.466 0-0.937-0.027-1.38-0.124 0.944 2.887 3.623 5.010 6.811 5.077-2.461 1.94-5.606 3.111-9.025 3.111-0.005 0-0.009 0-0.014 0h0.001c-0.020 0-0.045 0-0.069 0-0.59 0-1.172-0.038-1.743-0.11l0.068 0.007c3.14 2.051 6.986 3.271 11.116 3.271 0.023 0 0.047-0 0.070-0h-0.004c13.413 0 20.747-11.111 20.747-20.743 0-0.32-0.011-0.633-0.027-0.942 1.443-1.040 2.656-2.293 3.62-3.727l0.033-0.052z"></path>
</symbol>
<symbol id="icon-arrow-right" viewBox="0 0 32 32">
<path d="M621.254 82.746l320 320c24.994 24.992 24.994 65.516 0 90.51l-320 320c-24.994 24.992-65.516 24.992-90.51 0-24.994-24.994-24.994-65.516 0-90.51l210.746-210.746h-613.49c-35.346 0-64-28.654-64-64s28.654-64 64-64h613.49l-210.746-210.746c-12.496-12.496-18.744-28.876-18.744-45.254s6.248-32.758 18.744-45.254c24.994-24.994 65.516-24.994 90.51 0z"></path>
</symbol>
<symbol id="icon-arrow-right2" viewBox="0 0 32 32">
<path d="M19.414 27.414l10-10c0.781-0.781 0.781-2.047 0-2.828l-10-10c-0.781-0.781-2.047-0.781-2.828 0s-0.781 2.047 0 2.828l6.586 6.586h-19.172c-1.105 0-2 0.895-2 2s0.895 2 2 2h19.172l-6.586 6.586c-0.39 0.39-0.586 0.902-0.586 1.414s0.195 1.024 0.586 1.414c0.781 0.781 2.047 0.781 2.828 0z"></path>
</symbol>
<symbol id="icon-logo" viewBox="0 0 32 32"  >
<path d="M17.0544 25.5991C14.231 25.5991 11.3791 25.5991 8.55572 25.5991C5.73233 25.5991 2.85191 25.5991 0 25.5991V0.164062H8.12793V6.93867C9.61093 6.93867 11.1224 6.93867 12.6054 6.93867C14.0884 6.93867 15.5999 6.93867 17.0829 6.93867C18.3092 6.93867 19.0507 7.33184 19.0507 7.33184C19.3359 7.45281 19.6211 7.60403 19.8493 7.7855C20.0774 7.96696 20.3341 8.17867 20.5337 8.42062C20.933 8.90452 21.2467 9.50939 21.4749 10.205C21.5319 10.5377 21.6175 10.8704 21.6745 11.2635C21.7315 11.6567 21.7601 12.0499 21.7601 12.4733V20.1854C21.7601 20.6391 21.7315 21.0625 21.6745 21.4254C21.6175 21.7884 21.5319 22.1513 21.4178 22.4537C21.2752 22.8469 21.1326 23.2098 20.933 23.5425C20.7334 23.8752 20.5337 24.1171 20.2771 24.3288C20.0774 24.5708 19.8208 24.7523 19.5641 24.9337C19.3074 25.1152 19.0507 25.2059 18.7941 25.2966C18.7941 25.2966 17.91 25.5991 17.0544 25.5991ZM12.6339 10.5982H9.09758C8.95499 10.5982 8.84091 10.6284 8.72684 10.7191C8.61276 10.8099 8.49868 10.9006 8.41313 11.0216C8.27053 11.1426 8.18497 11.2635 8.12793 11.4148C8.0709 11.566 8.04238 11.7172 8.04238 11.8684V20.7903C8.04238 20.9415 8.0709 21.0625 8.15645 21.1835C8.24201 21.3045 8.29905 21.4254 8.38461 21.5162C8.49868 21.6371 8.61276 21.7279 8.72684 21.7884C8.84091 21.8489 8.98351 21.9396 9.1261 21.9396H12.6625C12.7765 21.9396 12.8906 21.9093 13.0047 21.8186C13.1188 21.7279 13.2328 21.6674 13.3184 21.5464C13.404 21.4254 13.4895 21.3045 13.5466 21.1835C13.6036 21.0625 13.6321 20.9113 13.6321 20.7903V11.8382C13.6321 11.7172 13.6036 11.5962 13.5466 11.445C13.4895 11.2938 13.4325 11.1426 13.3184 11.0518C13.2043 10.9611 13.1188 10.8401 13.0047 10.7494C12.8906 10.6587 12.7765 10.5982 12.6339 10.5982Z" />
<path d="M24.2979 6.93896H31.6843V8.29994C31.7698 8.11847 31.8839 7.93701 31.998 7.75555C32.1121 7.57408 32.2547 7.45311 32.3687 7.33213C32.5113 7.21116 32.6825 7.12043 32.8251 7.05994C32.9676 6.99945 33.1388 6.93896 33.3384 6.93896H41.1811C41.5519 6.93896 41.8941 6.99945 42.1793 7.15067C42.4645 7.30189 42.6926 7.48335 42.8638 7.69506C43.0064 7.84628 43.149 8.02774 43.2345 8.2092C43.3201 8.39067 43.4056 8.54189 43.4627 8.6931C43.5197 8.84432 43.5482 8.93506 43.5767 8.99554C43.6053 9.05603 43.5767 9.05603 43.5482 8.9653C43.6053 8.72335 43.6623 8.4814 43.7193 8.26969C43.7764 8.05799 43.8905 7.84628 44.0045 7.66482C44.1186 7.42287 44.2612 7.2414 44.4323 7.12043C44.6034 6.99945 44.8316 6.93896 45.0597 6.93896H51.505C51.9613 6.93896 52.3891 6.99945 52.7599 7.09018C53.1306 7.18092 53.4443 7.33213 53.758 7.54384C54.0718 7.75555 54.2999 7.96725 54.5281 8.2092C54.7562 8.45115 54.9273 8.75359 55.0984 9.05603C55.241 9.32822 55.3551 9.60042 55.4407 9.90286C55.5262 10.2053 55.6118 10.5077 55.6688 10.8102C55.7259 11.2033 55.7829 11.5965 55.8114 11.9897C55.8399 12.3828 55.8685 12.7458 55.8685 13.1087V25.5691H48.482V11.6268C48.482 11.4755 48.4535 11.3243 48.3965 11.2033C48.3394 11.0824 48.2824 10.9916 48.2253 10.8707C48.1398 10.8102 48.0542 10.7497 47.9402 10.6892C47.8261 10.6287 47.7405 10.6287 47.6264 10.6287H44.5464C44.4323 10.6287 44.3468 10.659 44.2327 10.7194C44.1186 10.7799 44.0616 10.8404 44.0045 10.9009C43.9475 10.9916 43.8904 11.1126 43.8334 11.2336C43.7764 11.3546 43.7764 11.4453 43.7764 11.5663V25.5691H36.3614V11.6872C36.3614 11.5663 36.3329 11.4453 36.3044 11.2941C36.2759 11.1429 36.2188 11.0219 36.1618 10.9311C36.0762 10.8102 35.9621 10.7194 35.8481 10.659C35.734 10.5985 35.5629 10.538 35.3918 10.538H32.4543C32.3402 10.538 32.2262 10.5682 32.1406 10.659C32.055 10.7497 31.9695 10.8404 31.8839 10.9614C31.7984 11.0824 31.7698 11.2033 31.7128 11.3243C31.6558 11.4453 31.6558 11.5663 31.6558 11.6872V25.5691H24.2979V6.93896Z" />
<path d="M80.1669 13.3501V25.5383H73.0086L72.4952 23.5422C72.4667 23.6934 72.4382 23.8144 72.3812 23.9051C72.3241 23.9959 72.2671 24.1169 72.2386 24.2076C72.1815 24.3588 72.1245 24.4798 72.0104 24.6008C71.8963 24.7217 71.8393 24.8125 71.7537 24.9032C71.4971 25.1149 71.2404 25.2964 70.9837 25.3871C70.6985 25.4778 70.3848 25.5383 70.0711 25.5383H62.6276C62.2284 25.5383 61.8576 25.5081 61.5439 25.4173C61.2302 25.3266 60.9165 25.2359 60.6598 25.0847C60.3746 24.9334 60.118 24.752 59.9183 24.5403C59.7187 24.3286 59.5191 24.0564 59.3765 23.7842C59.2053 23.4817 59.0628 23.1188 58.9487 22.7256C58.8346 22.3325 58.7776 21.9393 58.7205 21.5764C58.6635 21.1832 58.635 20.7598 58.635 20.3666C58.635 19.9735 58.6064 19.5803 58.6064 19.2174C58.6064 18.8847 58.6064 18.5218 58.6064 18.1588C58.6064 17.7959 58.635 17.4027 58.6635 17.0096C58.692 16.6164 58.7776 16.2535 58.8346 15.8905C58.8916 15.5276 59.0057 15.1949 59.1483 14.8925C59.2909 14.5598 59.4905 14.2574 59.7472 13.9852C60.0039 13.713 60.2606 13.5013 60.6028 13.3198C60.8595 13.1686 61.1732 13.0779 61.5154 12.9871C61.8576 12.8964 62.2284 12.8662 62.6276 12.8662H70.9267C71.0693 12.8662 71.2404 12.8057 71.383 12.715C71.5256 12.6242 71.6967 12.5032 71.8108 12.3218C71.8963 12.231 71.9819 12.1101 72.0389 11.9589C72.096 11.8076 72.1245 11.6867 72.1245 11.5657C72.1245 11.4145 72.096 11.2935 72.0104 11.1423C71.9249 10.9911 71.8678 10.8701 71.7537 10.7793C71.6397 10.6584 71.5256 10.5676 71.383 10.5072C71.2404 10.4467 71.1263 10.3862 70.9837 10.3862H59.9468V6.84766H75.3186C75.7749 6.84766 76.1742 6.8779 76.5449 6.96863C76.9157 7.05936 77.2579 7.18034 77.5716 7.33156C77.9424 7.48278 78.2276 7.72473 78.4842 7.96668C78.7409 8.20863 78.9691 8.51106 79.1402 8.8135C79.3113 9.0857 79.4824 9.38813 79.5965 9.72082C79.7106 10.0535 79.8246 10.3559 79.8817 10.6886C79.9958 11.1423 80.0528 11.5959 80.1098 12.0496C80.1669 12.5032 80.1669 12.9569 80.1669 13.3501ZM72.096 16.5862H68.1603C67.9892 16.5862 67.8181 16.6466 67.647 16.7374C67.4759 16.8281 67.3333 16.9491 67.1907 17.1003C67.0766 17.2515 66.9911 17.4027 66.877 17.5842C66.7629 17.7657 66.7344 17.8866 66.7344 18.0681V20.7296C66.7344 20.8505 66.7629 20.9715 66.8199 21.0925C66.877 21.2135 66.934 21.3344 67.0196 21.4554C67.1336 21.5764 67.2762 21.6671 67.4188 21.7881C67.5614 21.9091 67.7326 21.9393 67.8466 21.9393H71.0693C71.1834 21.9393 71.2974 21.9091 71.44 21.8183C71.5826 21.7276 71.6967 21.6369 71.8108 21.5159C71.8963 21.4252 71.9819 21.3042 72.0389 21.1832C72.096 21.0622 72.1245 20.9413 72.1245 20.8203V16.5862H72.096Z" />
<path d="M91.261 25.5994H83.1045V6.93896H91.261V8.60237C91.375 8.42091 91.5176 8.23945 91.6887 8.05798C91.7458 7.96725 91.8313 7.87652 91.9454 7.78579C92.0595 7.69506 92.145 7.63457 92.2306 7.60433C92.3732 7.5136 92.4873 7.42287 92.6299 7.33213C92.7725 7.2414 92.8865 7.18091 93.0291 7.15067C93.1717 7.09018 93.3428 7.05994 93.4854 7.0297C93.628 6.99945 93.7706 6.96921 93.9132 6.96921H98.7615V12.1409H94.4836C94.0558 12.1409 93.6566 12.2014 93.3143 12.2921C92.9436 12.3828 92.6014 12.5038 92.3447 12.6853C92.2021 12.7458 92.0595 12.8365 91.9454 12.9575C91.8313 13.0785 91.7458 13.1994 91.6317 13.3204C91.4891 13.4716 91.4035 13.6228 91.3465 13.8043C91.2895 13.9858 91.261 14.1672 91.261 14.3789V25.5994Z" />
<path d="M109.199 13.4109L116.186 6.969H121.32L116.5 11.4451L124.001 25.6294H114.333L110.511 16.889L109.171 18.2802V25.6899L101.071 25.6597V0.254883H109.171V13.4109H109.199Z" />
</symbol>
<symbol id="icon-down" width="17" height="17" viewBox="0 0 17 17" fill="none"  >
<path d="M13.4564 6.35645L8.78971 11.0231L4.12305 6.35645" stroke="black" stroke-width="1.5" stroke-linecap="round" stroke-linejoin="round"/>
</symbol>

<symbol id="icon-vector" width="2" height="67" viewBox="0 0 2 67" fill="none"  >
<path d="M0.644531 0.362793V66.1572" stroke="#858585"/>
</symbol>


</defs>
</svg>
